<svg xmlns="http://www.w3.org/2000/svg" viewBox="0 0 243.298 221.157"><title>Vancouver Canucks light logo</title><path d="M119.63 157.712l36.79-18.374c25.213 7.092 32.67 16.65 32.67 16.65l14.406-16.3c.813-.826 3.18-3.797 3.18-9.15 0-5.775-6.04-10.246-10.3-13.273-7.148-18.85-46.88-24.316-49.823-30.86-.953-2.285-6.77-21.878-6.77-21.878-3.46-10.147-13.663-10.147-17.503-10.147-3.868 0-12.15 1.303-12.15 1.303 0 14.127-1.935 31.35-3.94 34.533 0 0-7.16 3.742-15.584 6.77L70.523 83.432l5.284 18.275c-33.902 18.598-42.143 51.07-42.143 51.07s8.703 68.38 94.46 68.38c45.34 0 71.49-21.892 71.49-21.892l-14.617-32.655s-22.312 11.59-50.804 11.59c-26.278 0-36.523-12.248-40.307-19.382 22.242.646 25.745-1.106 25.745-1.106z" fill="#99999A"/><path d="M118.286 154.11l37.742-18.906c25.577 7.246 32.963 15.052 32.963 15.052l11.69-13.16s2.157-2.046 2.157-6.573c0-4.204-6.32-8.493-9.698-10.89-6.966-18.934-45.62-22.396-49.894-31.295-1.724-3.588-3.896-12.137-7.12-22.564-2.593-7.54-10.105-7.54-13.847-7.54-3.645 0-8.34.743-8.34.743 0 7.708-1.444 30.09-5.03 33.958-.87 1.15-7.47 3.798-14.62 6.56l2.13 1.443-2.185 2.172-4.106 4.162-4.542 14.113-5.9-3.027 2.116 5.228-10.525 1.752 5.955 2.074-17.14 13.16 4.625.364-6.11 11.016c8.828-4.008 11.477-4.75 11.477-4.75l-2.523-2.608 17.77-7.19s-1.33 3.588-1.33 10.47c0 .98.14 2.424.49 4.147 2.173 10.75 12.67 32.908 49.684 32.908 26.77 0 47.455-9.376 47.455-9.376l9.614 21.457s-25.13 17.406-63.123 17.406c-77.713 0-87.565-61.105-87.565-61.105 10.706-28.646 28.73-41.19 40.194-46.5l-3.574-.35-.322-1.08c-30.314 16.72-39.284 47.665-39.284 47.665s9.194 64.286 90.536 64.286c41.596 0 66.74-19.284 66.74-19.284l-11.76-26.306s-21.975 10.315-48.912 10.315c-40.11 0-46.04-27.37-46.04-27.37s22.86 1.373 30.148-.575zm81.12-20.182c.223-.77.265-1.514.167-2.242.084.73.042 1.472-.168 2.242.336-.63.63-1.514.63-2.635 0 1.122-.294 2.005-.63 2.635z" fill="#001F5B"/><path d="M190.757 121.455c-6.46-18.514-41.89-19.817-49.893-31.464-2.2-3.222-5.872-23.965-9.558-26.81-4.05-3.125-14.45-1.696-14.45-1.696 0 2.873-.7 28.31-5.997 33.552-3.52 3.013-9.503 4.317-16.637 8.06l-4.092 4.175-4.54 14.114-5.9-3.027 2.116 5.228-10.525 1.752 5.957 2.074-17.14 13.16 4.625.365-6.11 11.016c8.828-4.007 11.477-4.75 11.477-4.75l-2.524-2.607 17.77-7.19s-1.33 3.588-1.33 10.47c0 .98.14 2.424.49 4.147.73-.743 16.062-16.005 32.15-19.3L91.8 151.964s20.447.87 25.492-.575c15.795-7.344 28.506-14.253 38.443-19.214 23.07 6.125 32.935 14.113 32.935 14.113l2.453-2.733c-1.163-.87-9.642-6.713-26.32-12.22 4.96-1.963 10.974-4.262 12.57-4.262 3.687 0 11.24 4.807 19.398 10.09l1.823-2.06s.434-.377.813-1.176c.336-.63.63-1.514.63-2.635 0-3.85-5.018-6.387-9.28-9.835z" fill="#071C2C"/><path d="M101.37 118.694l-9.586 5.354 19.116 2.593-9.53-7.946zM88.98 133.76l1.64-11.913-22.2 14.996 20.56-3.083zm18.725-32.907l-16.06 8.942 4.175 10.02 11.885-18.962z" fill="#99999A"/><g fill="#FFF"><path d="M69.822 49.67l-7.19-23.937 16.27 21.205 5.187-1.57L72.22 5.846l-5.747 1.738 7.02 23.433-16.116-20.7-5.157 1.57 11.857 39.508 5.745-1.724zm19.02-9.165c.335 2.41 1.78 3.574 4.133 3.25l12.754-1.737c2.396-.322 3.545-1.85 3.208-4.26l-1.33-10.106-6.154.827 1.205 8.618-7.92 1.08-4.175-30.384 7.918-1.08 1.12 8.088 6.083-.855-1.303-9.572c-.336-2.41-1.864-3.56-4.26-3.237l-12.754 1.75c-2.327.31-3.435 1.823-3.098 4.248l4.57 33.37zm29.528.757l13.384.224c2.383.056 3.728-1.26 3.784-3.686l.603-33.692c.07-2.453-1.288-3.812-3.67-3.854L119.084.002c-2.355-.056-3.686 1.29-3.7 3.7l-.645 33.692c-.014 2.452 1.234 3.798 3.63 3.868zm3.11-35.935l8.508.14-.56 30.693-8.494-.168.547-30.665zm23.35 37.448l12.894 2.312c2.41.434 3.994-.66 4.43-3.055l6.572-36.887-6.068-1.08-6.32 35.403-8.186-1.444 6.307-35.416-6.04-1.093-6.574 36.887c-.463 2.397.602 3.94 2.984 4.373zm48.94 8.746l5.537-11.715 8.395 3.98 2.284-4.807-8.41-3.994 5.173-10.876 9.78 4.625 2.327-4.92-15.332-7.273-17.687 37.252 15.486 7.344 2.312-4.92-9.865-4.695zm47.72-13.832l-13.678-9.026-22.732 34.435 5.115 3.406 10.19-15.416 1.667 1.08-4.737 19.03 5.396 3.533.127-.168 4.457-19.158 1.808 1.163c1.99 1.247 3.77.883 5.1-1.135l8.298-12.557c1.332-2.006.995-3.842-1.01-5.187zM229.355 51.66l-6.503-4.288 7.205-10.876 6.49 4.26-7.19 10.905zm-32.682-37.91l.042-.112-5.844-1.906-13.594 26.404L181.76 8.79l-5.913-1.907-.014.084-5.228 41.568 5.886 1.906 20.182-36.69zM42.942 52.474l6.95-3.364 4.486 6.475 5.508-2.635v-.028l-25.03-33.748-5.83 2.817 10.65 40.602.014.056 5.508-2.663-2.256-7.51zm-6.91-23.237L46.838 44.71l-5.466 2.62-5.34-18.093zM18.43 27.373l-5.172 3.336 11.857 27.216-19.9-22.046L0 39.258l.07.084 28.94 30.314 5.187-3.35-15.71-38.85-.057-.083zm187.225 163.933c-2.172 0-3.966 1.78-3.966 3.952 0 2.2 1.793 3.994 3.965 3.994a4.004 4.004 0 0 0 4.008-3.994c0-2.173-1.793-3.952-4.008-3.952zm0 7.105c-1.71 0-3.11-1.43-3.11-3.152s1.4-3.097 3.11-3.097c1.738 0 3.167 1.374 3.167 3.098s-1.43 3.153-3.167 3.153z"/><path d="M207.31 194.36c0-.728-.59-1.344-1.346-1.344h-1.906v4.527h.87v-1.864h.588l.87 1.863h.938l-.883-1.92c.505-.183.87-.674.87-1.262zm-1.332.49h-1.05v-.98h1.05c.266 0 .49.224.49.49 0 .24-.238.49-.49.49zm-132.16-60.08l13.65-2.16 1.416-8.072-15.067 10.23zm33.72-9.713l-7.33-4.275-5.187 2.76 12.517 1.515zm-12.082-8.507l8.773-11.927-10.176 5.746 1.402 6.18z"/><path d="M134.193 188.082c-42.59 0-53.313-29.207-53.313-40.18 0-2.468.182-4.486.364-6.168l-9.796 3.223 1.26 2.775-7.637 2.79-6.586 4.33 13.384 2.467-2.775 9.557 5.732-1.668 5.522 14 6.6-.84 2.187 9.81s12.43 8.604 33.426 10.496c27.792 2.467 52.64-6.993 52.64-6.993s-29.656 11.604-56.592 8.745c-20.574-2.172-34.014-10.553-34.014-10.553l-.168-8.885-8.13.126-3.81-13.608-7.22 3.378 3.182-12.165-13.86-1.71 2.816-8.464 3.308-6.657-4.443.125 18.57-13.805-8.074-3.18 13.174-2.58-4.597-9.25 8.13 4.653 3.208-10.09c-9.74 3.39-30.748 14.182-42.885 45.87 1.458 7.274 14.155 57.67 84.314 57.67 30.243 0 52.345-11.463 59.17-15.47l-7.302-16.216c-6.64 2.58-24.188 8.465-45.785 8.465zM73.69 88.268l5.607 16.482 9.937 2.44 3.994-5.425L73.69 88.268zm54.967 1.163c-1.458-1.82-3.195-20.28-3.195-20.28s-.294 18.81-1.416 20.49c-1.08 1.683-6.475 4.794-6.475 4.794s6.027-1.962 8.957-2.144c2.158-.098 9.012 1.303 9.012 1.303s-5.44-2.298-6.883-4.162z"/><path d="M129.19 123.067c-29.978 1.766-43.95 27.54-44.694 28.983.73-.743 16.06-16.005 32.15-19.3l12.544-9.683zm61.567-1.612c-16.818-1.878-21.387-5.914-21.387-8.493 0-1.01.87-1.29 1.668-1.29 3.812 0 8.843 2.748 11.716 5.817-1.71-4.388-11.76-9.573-18.332-9.573-1.233 0-3.04.364-3.04 2.37 0 4.12 6.25 9.36 22.24 10.678 8.592 2.018 17.506 6.81 15.782 12.978.336-.63.63-1.514.63-2.635 0-3.87-5.016-6.405-9.277-9.853zm-22.24 9.797l6.25 2.214c1.135-.49 2.383-1.093 2.51-1.275.083-.167.083-.293-.21-.532-.183-.154-2.958-1.205-4.696-1.85l-3.854 1.444zm5.254-1.963c1.655.658 3.967 1.583 4.163 1.597.266.056.687.07.94 0 .21-.028 1.555-.743 2.592-1.26-.995-.463-2.943-1.36-4.232-1.36-1.247.013-3.462 1.022-3.462 1.022zm6.168 2.144c-.042.112 0 .224.224.378.238.154 3.462 1.85 3.7 1.878.28.014.49.014.77-.028.155-.056 1.304-.77 2.047-1.29l-4.318-2.34c-1.12.59-2.326 1.248-2.424 1.402zm3.055 3.405c.112-.14.154-.28.07-.42-.182-.225-3.406-1.893-3.756-1.95-.364-.07-.575-.07-.87.127-.293.14-1.933 1.01-2.522 1.36l5.03 2.283c.955-.602 1.978-1.26 2.048-1.4zm6.167 1.78c.098.013.434-.057.785-.197.168-.07.925-.645 1.444-1.08l-3.87-2.48c-.924.603-1.933 1.26-2.017 1.4 0 .057.028.113.224.42l3.433 1.936zm1.597.392c-.098.224-.14.322-.07.364.098.14 2.13 1.486 3.518 2.37l1.528-1.53-3.546-2.34c-.66.477-1.374 1.038-1.43 1.136zm-2.214.658c.056-.112.028-.294-.112-.434-.195-.168-3.293-1.85-3.517-1.892-.252-.056-.715.014-.98.084-.127.014-1.024.66-1.893 1.29l4.75 2.17c.8-.517 1.67-1.105 1.753-1.218zm.827.63c-.126.057-.995.716-1.682 1.234l4.29 2.663 1.583-1.766c-1.288-.896-3.208-2.185-3.32-2.213-.155-.07-.646 0-.87.084z"/><path d="M155.734 132.177c23.07 6.125 32.935 14.113 32.935 14.113l2.452-2.733c-1.163-.87-9.642-6.713-26.32-12.22 4.96-1.963 10.974-4.262 12.57-4.262 3.687 0 11.24 4.807 19.398 10.09l1.822-2.06c-7.12-4.918-15.43-10.72-21.443-10.72-4.892 0-11.9 3.026-21.416 7.792z"/></g></svg>